<svg width="92" height="60" viewBox="0 0 92 60" fill="none" xmlns="http://www.w3.org/2000/svg">
<mask id="mask0_2723_480" style="mask-type:luminance" maskUnits="userSpaceOnUse" x="0" y="2" width="92" height="35">
<path d="M92 2.49658H0V36.5035H92V2.49658Z" fill="white"/>
</mask>
<g mask="url(#mask0_2723_480)">
<path d="M0 18.0852V23.3821C25.5143 11.9493 33.9833 48.4208 85.7715 26.2365C87.6178 25.4484 89.1922 24.1356 90.2996 22.4609C91.4066 20.7863 91.9981 18.8235 92 16.816C35.4976 44.3255 26.7653 6.14382 1.20878 16.3045C0.852279 16.4463 0.546524 16.6918 0.331033 17.0093C0.115541 17.3268 0.000229557 17.7015 0 18.0852Z" fill="#477DB4"/>
<path d="M91.758 4.77424C74.8029 -2.82303 65.3751 10.7334 45.7593 14.1746C56.8046 16.1122 71.0827 14.841 91.758 4.77424Z" fill="#8CB8E5"/>
<path d="M0 14.1095C26.3353 2.30702 34.5118 41.5447 90.9065 14.6368C91.2334 14.481 91.5096 14.2359 91.7033 13.9297C91.8967 13.6236 91.9997 13.2689 92 12.9067V7.54247C40.7797 32.4797 28.8156 3.43486 7.98781 5.35575C5.80475 5.55646 3.77539 6.56543 2.29769 8.18485C0.819981 9.80424 0.000529894 11.9172 0 14.1095Z" fill="#477DB4"/>
<path d="M0.242188 26.3387C17.1939 18.7414 26.6232 32.2979 46.2387 35.7397C35.1908 37.6763 20.9156 36.4055 0.242188 26.3387Z" fill="#024282"/>
</g>
<path d="M64.2152 45.5034C63.8334 45.4998 63.517 45.4743 63.2661 45.4271C63.0188 45.3761 62.8079 45.3052 62.6334 45.2143C62.4625 45.1198 62.3243 45.0034 62.2188 44.8652C62.117 44.7234 62.037 44.5598 61.9788 44.3743C61.9206 44.1852 61.8825 43.9743 61.8643 43.7416C61.8461 43.5089 61.837 43.2507 61.837 42.9671V37.7198H62.8679V42.9671C62.8679 43.2834 62.877 43.5398 62.8952 43.7361C62.917 43.9325 62.9697 44.0852 63.0534 44.1943C63.1406 44.2998 63.2697 44.3725 63.4406 44.4125C63.6152 44.4489 63.8734 44.4689 64.2152 44.4725V45.5034ZM68.6366 44.4725V45.5034H68.2112C67.8803 45.5034 67.5876 45.4561 67.333 45.3616C67.0821 45.2671 66.8803 45.1252 66.7276 44.9361C66.3494 45.3143 65.7894 45.5034 65.0476 45.5034H64.0003V44.4725H65.0476C65.3094 44.4725 65.5166 44.4471 65.6694 44.3961C65.8221 44.3416 65.9366 44.2761 66.013 44.1998C66.093 44.1198 66.1439 44.0325 66.1657 43.938C66.1912 43.8398 66.2039 43.7471 66.2039 43.6598V41.8161H67.2294V43.6216C67.2294 43.7561 67.2494 43.8707 67.2894 43.9652C67.3294 44.0598 67.3803 44.1398 67.4421 44.2052C67.5076 44.2671 67.5785 44.3161 67.6548 44.3525C67.7348 44.3889 67.8112 44.4161 67.8839 44.4343C67.9566 44.4525 68.0221 44.4634 68.0803 44.4671C68.1385 44.4707 68.1821 44.4725 68.2112 44.4725H68.6366ZM65.3912 39.3016L66.3185 38.3634L67.2676 39.3125L66.3294 40.2507L65.3912 39.3016ZM70.8073 44.4725C70.8473 44.4725 70.8673 44.4871 70.8673 44.5161V45.4489C70.8673 45.4852 70.8473 45.5034 70.8073 45.5034H68.4728C68.4364 45.5034 68.4183 45.4852 68.4183 45.4489V44.5161C68.4183 44.4871 68.4364 44.4725 68.4728 44.4725H70.8073ZM73.0339 44.4725C73.0739 44.4725 73.0939 44.4871 73.0939 44.5161V45.4489C73.0939 45.4852 73.0739 45.5034 73.0339 45.5034H70.6994C70.663 45.5034 70.6448 45.4852 70.6448 45.4489V44.5161C70.6448 44.4871 70.663 44.4725 70.6994 44.4725H73.0339ZM76.6623 41.0634C76.6696 41.0852 76.6841 41.1434 76.7059 41.238C76.7277 41.3325 76.7514 41.4507 76.7768 41.5925C76.8059 41.7307 76.8368 41.8852 76.8696 42.0561C76.9023 42.2234 76.9314 42.3943 76.9568 42.5689C76.9823 42.7398 77.0041 42.9052 77.0223 43.0652C77.0405 43.2252 77.0496 43.3652 77.0496 43.4852C77.0496 43.8343 76.9914 44.1361 76.875 44.3907C76.7623 44.6416 76.6132 44.8507 76.4277 45.018C76.2459 45.1816 76.0405 45.3034 75.8114 45.3834C75.5823 45.4634 75.3514 45.5034 75.1187 45.5034H72.8605V44.4725H75.1187C75.1732 44.4725 75.2496 44.4652 75.3477 44.4507C75.4496 44.4325 75.5496 44.3907 75.6477 44.3252C75.7496 44.2598 75.8368 44.1616 75.9096 44.0307C75.9859 43.8998 76.0241 43.718 76.0241 43.4852C76.0241 43.4052 76.0168 43.3052 76.0023 43.1852C75.9914 43.0616 75.975 42.9307 75.9532 42.7925C75.935 42.6507 75.9132 42.5071 75.8877 42.3616C75.8623 42.2125 75.8368 42.0725 75.8114 41.9416C75.7859 41.8107 75.7623 41.6943 75.7405 41.5925C75.7187 41.4907 75.7005 41.4143 75.6859 41.3634L76.6623 41.0634ZM77.1205 47.5816L76.2368 48.4652L75.3859 47.5816L76.2477 46.7089L77.1205 47.5816ZM75.0314 47.5925L74.1477 48.4761L73.2968 47.5925L74.1587 46.7198L75.0314 47.5925ZM77.8789 48.5307V47.4998H78.6316C79.0062 47.4998 79.3298 47.4543 79.6025 47.3634C79.8789 47.2761 80.1062 47.1398 80.2844 46.9543C80.4662 46.7689 80.5989 46.5325 80.6825 46.2452C80.7698 45.958 80.8135 45.6161 80.8135 45.2198V41.8161H81.8444V45.2198C81.8444 45.7398 81.7753 46.2034 81.6371 46.6107C81.5025 47.0216 81.3007 47.3689 81.0316 47.6525C80.7625 47.9361 80.4262 48.1525 80.0225 48.3016C79.6225 48.4543 79.1589 48.5307 78.6316 48.5307H77.8789ZM85.848 45.5034C85.4662 45.4998 85.1498 45.4743 84.8989 45.4271C84.6516 45.3761 84.4407 45.3052 84.2662 45.2143C84.0953 45.1198 83.9571 45.0034 83.8516 44.8652C83.7498 44.7234 83.6698 44.5598 83.6116 44.3743C83.5535 44.1852 83.5153 43.9743 83.4971 43.7416C83.4789 43.5089 83.4698 43.2507 83.4698 42.9671V37.7198H84.5007V42.9671C84.5007 43.2834 84.5098 43.5398 84.528 43.7361C84.5498 43.9325 84.6025 44.0852 84.6862 44.1943C84.7735 44.2998 84.9025 44.3725 85.0735 44.4125C85.248 44.4489 85.5062 44.4689 85.848 44.4725V45.5034ZM89.5876 44.7343C89.6131 44.7343 89.6476 44.7325 89.6913 44.7289C89.7386 44.7252 89.7876 44.7107 89.8386 44.6852C89.8931 44.6598 89.9458 44.6216 89.9967 44.5707C90.0513 44.5161 90.0986 44.4416 90.1386 44.3471C90.1822 44.2489 90.2167 44.1252 90.2422 43.9761C90.2713 43.8234 90.2858 43.638 90.2858 43.4198C90.2858 43.3798 90.2822 43.3161 90.2749 43.2289C90.2676 43.1416 90.2513 43.0452 90.2258 42.9398C90.2004 42.8307 90.1622 42.7198 90.1113 42.6071C90.064 42.4943 89.9986 42.3907 89.9149 42.2961C89.8313 42.2016 89.7295 42.1252 89.6095 42.0671C89.4895 42.0052 89.344 41.9743 89.1731 41.9743C89.0131 41.9743 88.8767 42.0034 88.764 42.0616C88.6549 42.1161 88.5622 42.1925 88.4858 42.2907C88.4095 42.3889 88.3458 42.5052 88.2949 42.6398C88.244 42.7707 88.1967 42.9143 88.1531 43.0707C88.1095 43.2234 88.0658 43.3852 88.0222 43.5561C87.9786 43.7234 87.9276 43.8907 87.8695 44.058C88.0586 44.1525 88.2331 44.2416 88.3931 44.3252C88.5531 44.4089 88.7022 44.4816 88.8404 44.5434C88.9786 44.6016 89.1076 44.6489 89.2276 44.6852C89.3513 44.718 89.4713 44.7343 89.5876 44.7343ZM89.1731 40.9489C89.5295 40.9489 89.8386 41.018 90.1004 41.1561C90.3658 41.2907 90.5858 41.4725 90.7604 41.7016C90.9349 41.9307 91.064 42.1943 91.1476 42.4925C91.2349 42.7907 91.2786 43.0998 91.2786 43.4198C91.2786 43.7725 91.2476 44.0761 91.1858 44.3307C91.1276 44.5852 91.0495 44.7998 90.9513 44.9743C90.8531 45.1452 90.7422 45.2834 90.6186 45.3889C90.4986 45.4943 90.3749 45.5743 90.2476 45.6289C90.124 45.6834 90.004 45.7198 89.8876 45.738C89.7713 45.7561 89.6713 45.7652 89.5876 45.7652C89.4095 45.7652 89.2386 45.7471 89.0749 45.7107C88.9113 45.6743 88.744 45.6216 88.5731 45.5525C88.4022 45.4871 88.2222 45.4052 88.0331 45.3071C87.8476 45.2089 87.6422 45.098 87.4167 44.9743C87.1186 45.3271 86.7349 45.5034 86.2658 45.5034H85.6386V44.4725H86.2658C86.404 44.4725 86.5167 44.4216 86.604 44.3198C86.6949 44.218 86.7731 44.0852 86.8386 43.9216C86.904 43.758 86.964 43.5707 87.0186 43.3598C87.0731 43.1489 87.1349 42.9325 87.204 42.7107C87.2767 42.4889 87.3622 42.2725 87.4604 42.0616C87.5586 41.8507 87.6822 41.6634 87.8313 41.4998C87.984 41.3361 88.1676 41.2034 88.3822 41.1016C88.6004 40.9998 88.864 40.9489 89.1731 40.9489Z" fill="#023568"/>
<path d="M75.1562 56.5034C74.7962 56.5034 74.4781 56.4507 74.2017 56.3452C73.929 56.2398 73.7017 56.0871 73.5199 55.8871L73.389 56.0125C73.2071 56.1652 72.9981 56.2852 72.7617 56.3725C72.5253 56.4598 72.2835 56.5034 72.0362 56.5034C71.6799 56.5034 71.3671 56.4507 71.0981 56.3452C70.829 56.2398 70.6035 56.0871 70.4217 55.8871L70.2908 56.0125C70.109 56.1652 69.8999 56.2852 69.6635 56.3725C69.4271 56.4598 69.1853 56.5034 68.9381 56.5034C68.4835 56.5034 68.0908 56.4016 67.7599 56.198V56.6561C67.7599 57.6089 67.5053 58.3234 66.9962 58.7998C66.4871 59.2761 65.7253 59.5143 64.7108 59.5143H63.429C62.8653 59.5143 62.3544 59.3925 61.8962 59.1489C61.4381 58.9052 61.0671 58.558 60.7835 58.1071C60.5871 57.798 60.4471 57.4543 60.3635 57.0761C60.2981 56.7816 60.2653 56.4725 60.2653 56.1489C60.2653 56.0543 60.2726 55.8743 60.2871 55.6089C60.3017 55.3434 60.3762 54.9725 60.5108 54.4961C60.6453 54.0198 60.8326 53.5289 61.0726 53.0234L61.9999 53.4761C61.7962 53.898 61.6344 54.3034 61.5144 54.6925C61.3981 55.0816 61.3253 55.4489 61.2962 55.7943C61.289 55.9107 61.2853 56.0234 61.2853 56.1325C61.2853 56.3543 61.309 56.5889 61.3562 56.8361C61.4035 57.0834 61.5017 57.3234 61.6508 57.5561C61.8399 57.8507 62.0871 58.078 62.3926 58.238C62.6981 58.4016 63.0435 58.4834 63.429 58.4834H64.7108C65.129 58.4834 65.469 58.4398 65.7308 58.3525C65.9962 58.2652 66.2017 58.1416 66.3471 57.9816C66.4962 57.8216 66.5962 57.6289 66.6471 57.4034C66.7017 57.1816 66.729 56.9325 66.729 56.6561V52.8216H67.7599V53.8798C67.7599 54.2289 67.7926 54.5089 67.8581 54.7198C67.9271 54.9271 68.0162 55.0871 68.1253 55.1998C68.2381 55.3125 68.3635 55.3871 68.5017 55.4234C68.6435 55.4598 68.789 55.478 68.9381 55.478C69.029 55.478 69.1326 55.4616 69.249 55.4289C69.3653 55.3961 69.4744 55.3416 69.5762 55.2652C69.6781 55.1852 69.7635 55.0798 69.8326 54.9489C69.9053 54.818 69.9417 54.6543 69.9417 54.458V52.8216H70.9671V54.5125C70.9744 54.8434 71.0617 55.0871 71.229 55.2434C71.3999 55.3998 71.6726 55.478 72.0471 55.478C72.1381 55.478 72.2399 55.4616 72.3526 55.4289C72.469 55.3961 72.5781 55.3416 72.6799 55.2652C72.7817 55.1852 72.8671 55.0798 72.9362 54.9489C73.0053 54.818 73.0399 54.6543 73.0399 54.458V52.8216H74.0653V54.5125C74.0726 54.8434 74.1617 55.0871 74.3326 55.2434C74.5071 55.3961 74.7817 55.4725 75.1562 55.4725H75.5871V56.5034H75.1562ZM71.2071 49.058L70.4326 49.8161L69.669 49.058L70.4544 48.278L71.2071 49.058ZM71.4744 51.5234L70.6126 50.6507L71.4635 49.7671L72.3471 50.6507L71.4744 51.5234ZM69.3853 51.5125L68.5235 50.6398L69.3744 49.7561L70.2581 50.6398L69.3853 51.5125ZM81.3356 55.4725V56.5034H80.381C80.0501 56.5034 79.7574 56.4561 79.5028 56.3616C79.2519 56.2671 79.0501 56.1252 78.8974 55.9361C78.5192 56.3143 77.9592 56.5034 77.2174 56.5034H75.3628V55.4725H77.2174C77.4792 55.4725 77.6865 55.4471 77.8392 55.3961C77.9919 55.3416 78.1065 55.2761 78.1828 55.1998C78.2628 55.1198 78.3137 55.0325 78.3356 54.938C78.361 54.8398 78.3737 54.7471 78.3737 54.6598V52.8161H79.3992V54.6216C79.3992 54.7561 79.4192 54.8707 79.4592 54.9652C79.5028 55.0598 79.5556 55.1398 79.6174 55.2052C79.6792 55.2671 79.7483 55.3161 79.8246 55.3525C79.9046 55.3889 79.981 55.4161 80.0537 55.4343C80.1265 55.4525 80.1919 55.4634 80.2501 55.4671C80.3083 55.4707 80.3519 55.4725 80.381 55.4725H81.3356ZM79.8301 58.6143L78.9465 59.498L78.0956 58.6143L78.9574 57.7416L79.8301 58.6143ZM77.741 58.6252L76.8574 59.5089L76.0065 58.6252L76.8683 57.7525L77.741 58.6252ZM83.487 55.4725C83.527 55.4725 83.547 55.4871 83.547 55.5161V56.4489C83.547 56.4852 83.527 56.5034 83.487 56.5034H81.1525C81.1161 56.5034 81.0979 56.4852 81.0979 56.4489V55.5161C81.0979 55.4871 81.1161 55.4725 81.1525 55.4725H83.487ZM85.7136 55.4725C85.7536 55.4725 85.7736 55.4871 85.7736 55.5161V56.4489C85.7736 56.4852 85.7536 56.5034 85.7136 56.5034H83.379C83.3427 56.5034 83.3245 56.4852 83.3245 56.4489V55.5161C83.3245 55.4871 83.3427 55.4725 83.379 55.4725H85.7136ZM85.5347 56.5034V55.4725H88.7311C88.9929 55.4725 89.2092 55.4434 89.3802 55.3852C89.5547 55.3234 89.6674 55.2398 89.7183 55.1343C89.7438 55.0798 89.7565 55.018 89.7565 54.9489C89.7565 54.8871 89.7383 54.7998 89.702 54.6871C89.6692 54.5707 89.5965 54.4198 89.4838 54.2343C89.3711 54.0452 89.2329 53.8471 89.0692 53.6398C88.9056 53.4325 88.7292 53.2252 88.5402 53.018C88.3511 52.8107 88.1565 52.6089 87.9565 52.4125C87.7565 52.2125 87.5638 52.0289 87.3783 51.8616C87.1929 51.6907 87.0238 51.5416 86.8711 51.4143C86.7183 51.2834 86.5929 51.1834 86.4947 51.1143L86.5983 49.9525L91.5892 47.7598L92.0038 48.698L87.6347 50.6071C87.7438 50.7161 87.8838 50.8543 88.0547 51.0216C88.2256 51.1852 88.4111 51.3689 88.6111 51.5725C88.8111 51.7725 89.0147 51.9871 89.222 52.2161C89.4292 52.4416 89.6256 52.6689 89.8111 52.898C89.9965 53.1271 90.1602 53.3525 90.302 53.5743C90.4474 53.7925 90.5547 53.9943 90.6238 54.1798C90.6856 54.3398 90.7292 54.4889 90.7547 54.6271C90.7729 54.7471 90.782 54.8561 90.782 54.9543C90.782 54.9725 90.7802 55.0143 90.7765 55.0798C90.7765 55.1452 90.7638 55.2234 90.7383 55.3143C90.7165 55.4052 90.6911 55.4834 90.662 55.5489C90.622 55.6398 90.5602 55.7416 90.4765 55.8543C90.3929 55.9634 90.2747 56.0671 90.122 56.1652C89.9729 56.2598 89.7856 56.3398 89.5602 56.4052C89.3347 56.4707 89.0583 56.5034 88.7311 56.5034H85.5347Z" fill="black"/>
</svg>
