<svg width="24" height="25" viewBox="0 0 24 25" fill="none" xmlns="http://www.w3.org/2000/svg">
<path d="M15.2395 22.7705H15.1095C10.6695 22.7705 8.52953 21.0205 8.15953 17.1005C8.11953 16.6905 8.41953 16.3205 8.83953 16.2805C9.24953 16.2405 9.61953 16.5505 9.65953 16.9605C9.94953 20.1005 11.4295 21.2705 15.1195 21.2705H15.2495C19.3195 21.2705 20.7595 19.8305 20.7595 15.7605V9.24047C20.7595 5.17047 19.3195 3.73047 15.2495 3.73047H15.1195C11.4095 3.73047 9.92953 4.92047 9.65953 8.12047C9.60953 8.53047 9.26953 8.84047 8.83953 8.80047C8.41953 8.77047 8.11953 8.40047 8.14953 7.99047C8.48953 4.01047 10.6395 2.23047 15.1095 2.23047H15.2395C20.1495 2.23047 22.2495 4.33047 22.2495 9.24047V15.7605C22.2495 20.6705 20.1495 22.7705 15.2395 22.7705Z" fill="#292D32"/>
<path d="M14.88 13.25H2C1.59 13.25 1.25 12.91 1.25 12.5C1.25 12.09 1.59 11.75 2 11.75H14.88C15.29 11.75 15.63 12.09 15.63 12.5C15.63 12.91 15.3 13.25 14.88 13.25Z" fill="#292D32"/>
<path d="M12.6498 16.5998C12.4598 16.5998 12.2698 16.5298 12.1198 16.3798C11.8298 16.0898 11.8298 15.6098 12.1198 15.3198L14.9398 12.4998L12.1198 9.67984C11.8298 9.38984 11.8298 8.90984 12.1198 8.61984C12.4098 8.32984 12.8898 8.32984 13.1798 8.61984L16.5298 11.9698C16.8198 12.2598 16.8198 12.7398 16.5298 13.0298L13.1798 16.3798C13.0298 16.5298 12.8398 16.5998 12.6498 16.5998Z" fill="#292D32"/>
</svg>
